<svg id="Layer_1" data-name="Layer 1" xmlns="http://www.w3.org/2000/svg" viewBox="0 0 800 800"><defs><style>.cls-1{fill:#8b489c;}.cls-2{fill:#fff;}</style></defs><circle class="cls-1" cx="400" cy="400" r="400"/><path class="cls-2" d="M328.39,365.77A34.21,34.21,0,0,0,294.17,400V542.85a73.32,73.32,0,0,1-73.25,73.24H199.4a34.4,34.4,0,0,0-24.18,10,34.25,34.25,0,0,0,24.21,58.45h21.48c78.17,0,141.77-63.6,141.77-141.78V400A34.26,34.26,0,0,0,328.39,365.77Z"/><path class="cls-2" d="M629.62,632.21,485.41,401.86a3.65,3.65,0,0,1,0-3.86l143-230.36a34.25,34.25,0,0,0-29-52.22h-.15a34,34,0,0,0-29.07,16.17L420,373.4a50.42,50.42,0,0,0,.06,53.27L571.49,668.52a34,34,0,0,0,29,16.06h.15a34.26,34.26,0,0,0,29-52.37Z"/></svg>