<svg id="Layer_1" data-name="Layer 1" xmlns="http://www.w3.org/2000/svg" viewBox="0 0 800 800"><defs><style>.cls-1{fill:#8b489c;}</style></defs><path class="cls-1" d="M299.34,351.88a48.11,48.11,0,0,0-48.1,48.1v200.8a103.06,103.06,0,0,1-103,103H118a48.38,48.38,0,0,0-34,14.09,48.14,48.14,0,0,0,34,82.16h30.2c109.87,0,199.26-89.4,199.26-199.28V399.93A48.17,48.17,0,0,0,299.34,351.88Z"/><path class="cls-1" d="M722.75,726.39,520.05,402.62a5.12,5.12,0,0,1,0-5.42L721,73.4A48.15,48.15,0,0,0,680.16,0h-.22a47.73,47.73,0,0,0-40.85,22.74l-211,339.87a70.88,70.88,0,0,0,.09,74.88L641,777.42A47.82,47.82,0,0,0,681.8,800H682a48.17,48.17,0,0,0,40.74-73.61Z"/></svg>